<svg xmlns="http://www.w3.org/2000/svg" width="329" height="46" viewBox="0 0 329 46" fill="none"><path d="M30.5095 2.34082H9.85245L3.94922 8.24405V37.7559L9.85245 43.6592H30.5095L36.4127 37.7559V8.24405L30.5095 2.34082ZM25.3622 36.4054L21.506 28.1536L12.1798 24.9557L12.0481 14.245L14.6982 10.9833L18.2741 18.0417L28.2714 21.847L28.6748 32.8805L25.3622 36.4054Z" fill="#FCF101"></path><path d="M52.2153 43.6571L40.4131 31.8549V2.34302H52.2153V27.0219L55.1669 29.9735H58.1185L61.0701 26.9582V2.34302H72.8723V31.8549L61.0701 43.6571H52.2153Z" fill="#FCF101"></path><path d="M109.331 2.34497V14.1472H88.6743V17.0988H104.286L96.0852 28.901H88.6743V31.8526H109.331V43.6548H76.8721V2.34497H109.331Z" fill="#FCF101"></path><path d="M125.133 34.8023V43.6571H113.331V2.34302H139.891L145.795 8.24625V25.9517L142.843 28.9033L145.795 31.8549V43.6571H133.992V34.8023H125.138H125.133ZM125.133 14.1452V23.0001H133.988V14.1452H125.133Z" fill="#FCF101"></path><path d="M176.338 2.35571L182.237 8.25469V14.1537H161.593V17.101H176.338L182.237 23V37.7454L176.338 43.6443H155.694L149.795 37.7454V31.8464H170.439V28.899H155.694L149.795 23V8.25469L155.694 2.35571H176.338Z" fill="#FCF101"></path><path d="M198.035 28.899V43.6443H186.237V2.35571H198.035V17.101H206.882V2.35571H218.68V43.6401H206.882V28.8948H198.035V28.899Z" fill="#FCF101"></path><path d="M249.223 2.35571H228.579L222.68 8.25469V37.7454L228.579 43.6443H249.223L255.122 37.7454V8.25469L249.223 2.35571ZM244.08 36.3948L240.228 28.1473L230.906 24.9536L230.774 14.2514L233.42 10.9897L236.996 18.0439L246.985 21.8449L247.388 32.8699L244.08 36.3906V36.3948Z" fill="#FCF101"></path><path d="M288.613 2.35571V14.1537H279.766V43.6443H267.968V14.1537H259.122V2.35571H288.613Z" fill="#FCF101"></path><path d="M292.612 14.1537V2.35571H325.05V23L319.151 28.899H304.406V31.8464H325.05V43.6443H292.612V23L298.511 17.101H313.257V14.1537H292.612Z" fill="#FCF101"></path></svg>