<svg xmlns="http://www.w3.org/2000/svg" width="430" height="254" viewBox="0 0 430 254" fill="none"><g clip-path="url(#clip0_3459_158)"><path d="M146.567 120.976L111.75 85.086V-4.64844H146.567V70.3835L155.276 79.3606H163.976L172.685 70.1889V-4.64844H207.502V85.0767L172.685 120.967H146.567V120.976Z" fill="#FCF101"></path><path d="M315.256 -4.64844V31.2416H254.321V40.2188H300.373L276.179 76.1088H254.321V85.086H315.256V120.976H219.504V-4.64844H315.256Z" fill="#FCF101"></path><path d="M362.075 94.0539V120.976H327.258V-4.64844H405.601L423.01 13.2966V67.1317L414.31 76.0996L423.01 85.0767V120.967H388.192V94.0446H362.075V94.0539ZM362.075 31.2416V58.1638H388.192V31.2416H362.075Z" fill="#FCF101"></path><path d="M67.996 136.977L82.0434 151.457V165.937H32.8642V173.182H67.987L82.0344 187.662V223.867L67.987 238.347H18.8169L4.76953 223.867V209.387H53.9487V202.142H18.8169L4.76953 187.662V151.457L18.8169 136.977H67.996Z" fill="#FCF101"></path><path d="M120.147 202.151V238.356H92.043V136.977H120.147V173.182H141.222V136.977H169.326V238.356H141.222V202.151H120.147Z" fill="#FCF101"></path><path d="M336.856 136.977V165.946H315.781V238.366H287.677V165.946H266.602V136.977H336.856Z" fill="#FCF101"></path><path d="M346.855 165.946V136.977H424.129V187.671L410.082 202.151H374.959V209.396H424.138V238.366H346.864V187.671L360.912 173.191H396.035V165.946H346.855Z" fill="#FCF101"></path><path d="M242.551 136.977H193.372L179.324 151.457V223.876L193.372 238.356H242.551L256.598 223.876V151.457L242.551 136.977ZM230.301 220.569L221.125 200.317L198.917 192.47L198.602 166.187L204.911 158.183L213.431 175.507L237.23 184.845L238.183 211.925L230.301 220.569Z" fill="#FCF101"></path><path d="M82.3433 -5H21.4086L4 12.945V102.67L21.4086 120.615H82.3433L99.7519 102.67V12.945L82.3433 -5ZM67.1546 98.5661L55.7855 73.469L28.275 63.7507L27.8886 31.1865L35.6986 21.2644L46.2498 42.7299L75.7376 54.301L76.9239 87.8472L67.1546 98.5568V98.5661Z" fill="#FCF101"></path></g><defs><clipPath id="clip0_3459_158"><rect width="430" height="254" fill="white"></rect></clipPath></defs></svg>