<svg xmlns="http://www.w3.org/2000/svg" width="42" height="43" viewBox="0 0 42 43" fill="none"><g id="Frame 4574"><rect width="42" height="43" rx="5" fill="black"></rect><g id="brain 1"><path id="Vector" d="M24.9375 12.2188C25.1273 12.2188 25.2813 12.0648 25.2813 11.875C25.2813 11.6852 25.1273 11.5312 24.9375 11.5312C24.7477 11.5312 24.5938 11.6852 24.5938 11.875C24.5938 12.0648 24.7477 12.2188 24.9375 12.2188Z" fill="#FCF101"></path><path id="Vector_2" d="M26.3125 31.4688C26.5023 31.4688 26.6563 31.3148 26.6563 31.125C26.6563 30.9352 26.5023 30.7812 26.3125 30.7812C26.1227 30.7812 25.9688 30.9352 25.9688 31.125C25.9688 31.3148 26.1227 31.4688 26.3125 31.4688Z" fill="#FCF101"></path><path id="Vector_3" d="M30.4375 17.0313C30.6273 17.0313 30.7813 16.8773 30.7813 16.6875C30.7813 16.4977 30.6273 16.3438 30.4375 16.3438C30.2477 16.3438 30.0938 16.4977 30.0938 16.6875C30.0938 16.8773 30.2477 17.0313 30.4375 17.0313Z" fill="#FCF101"></path><path id="Vector_4" d="M26.3125 23.2188C26.5023 23.2188 26.6563 23.0648 26.6563 22.875C26.6563 22.6852 26.5023 22.5312 26.3125 22.5312C26.1227 22.5312 25.9688 22.6852 25.9688 22.875C25.9688 23.0648 26.1227 23.2188 26.3125 23.2188Z" fill="#FCF101"></path><path id="Vector_5" d="M26.3125 14.9688C26.5023 14.9688 26.6563 14.8148 26.6563 14.625C26.6563 14.4352 26.5023 14.2812 26.3125 14.2812C26.1227 14.2812 25.9688 14.4352 25.9688 14.625C25.9688 14.8148 26.1227 14.9688 26.3125 14.9688Z" fill="#FCF101"></path><path id="Vector_6" d="M18.7502 6.375C18.0208 6.375 17.3213 6.66473 16.8056 7.18046C16.2899 7.69618 16.0002 8.39565 16.0002 9.125C15.3363 9.11926 14.6811 9.27522 14.091 9.57941C13.501 9.88361 12.9938 10.3269 12.6134 10.871C12.233 11.415 11.9908 12.0435 11.9077 12.7022C11.8246 13.3608 11.9031 14.0298 12.1364 14.6513C12.0488 14.643 11.9644 14.625 11.8752 14.625C11.3358 14.624 10.8082 14.7818 10.358 15.0788C9.90784 15.3758 9.55514 15.7989 9.34393 16.2951C9.13273 16.7914 9.07237 17.3388 9.17041 17.8692C9.26844 18.3995 9.52051 18.8892 9.89516 19.2772C9.3001 19.5981 8.79403 20.0618 8.42237 20.6266C8.05071 21.1914 7.82509 21.8396 7.76576 22.5131C7.70642 23.1866 7.81524 23.8643 8.08243 24.4853C8.34962 25.1064 8.76684 25.6514 9.29663 26.0715C9.14196 26.4857 9.09042 26.9314 9.14643 27.37C9.20245 27.8086 9.36435 28.227 9.61815 28.5891C9.87196 28.9512 10.2101 29.2461 10.6033 29.4483C10.9965 29.6506 11.433 29.7541 11.8752 29.75C11.8752 30.844 12.3098 31.8932 13.0833 32.6668C13.8569 33.4404 14.9061 33.875 16.0002 33.875C15.9981 34.4865 16.2004 35.0811 16.5752 35.5643C16.9499 36.0475 17.4754 36.3916 18.0682 36.5417C18.6609 36.6919 19.2869 36.6396 19.8465 36.393C20.406 36.1465 20.8671 35.72 21.1564 35.1813V7.81944C20.923 7.38397 20.5761 7.01977 20.1524 6.76548C19.7288 6.51118 19.2443 6.37625 18.7502 6.375ZM11.8752 25.9694C11.784 25.9694 11.6966 25.9332 11.6321 25.8688C11.5676 25.8043 11.5314 25.7169 11.5314 25.6257C11.5314 25.5345 11.5676 25.4471 11.6321 25.3826C11.6966 25.3182 11.784 25.2819 11.8752 25.2819C12.4587 25.2801 13.0215 25.0659 13.4586 24.6794C13.8958 24.2929 14.1772 23.7605 14.2505 23.1816C13.7436 23.1216 13.2596 22.9366 12.8419 22.6432C12.4243 22.3499 12.086 21.9574 11.8575 21.501C11.629 21.0446 11.5174 20.5386 11.5328 20.0284C11.5482 19.5183 11.6901 19.0199 11.9457 18.5781C11.9931 18.5029 12.0678 18.4489 12.1541 18.4276C12.2404 18.4062 12.3316 18.4191 12.4086 18.4636C12.4856 18.5081 12.5423 18.5807 12.5669 18.6662C12.5915 18.7516 12.5821 18.8433 12.5405 18.9219C12.3563 19.2415 12.248 19.5992 12.224 19.9674C12.2 20.3355 12.261 20.7043 12.4023 21.0451C12.5436 21.3859 12.7614 21.6897 13.0388 21.9329C13.3162 22.1762 13.6458 22.3523 14.0021 22.4479C14.3585 22.5434 14.7321 22.5557 15.0939 22.4838C15.4558 22.4119 15.7963 22.2578 16.0891 22.0334C16.3819 21.8089 16.6192 21.5201 16.7826 21.1893C16.946 20.8586 17.0311 20.4946 17.0314 20.1257C17.0314 20.0345 17.0676 19.9471 17.1321 19.8826C17.1966 19.8182 17.284 19.7819 17.3752 19.7819C17.4663 19.7819 17.5538 19.8182 17.6182 19.8826C17.6827 19.9471 17.7189 20.0345 17.7189 20.1257C17.7165 20.8898 17.4308 21.626 16.917 22.1916C16.4032 22.7573 15.6978 23.1122 14.9374 23.1878C14.8618 23.9483 14.5068 24.6536 13.9412 25.1674C13.3755 25.6813 12.6394 25.967 11.8752 25.9694ZM17.3752 32.8438C17.284 32.8438 17.1966 32.8075 17.1321 32.7431C17.0676 32.6786 17.0314 32.5912 17.0314 32.5C17.0306 31.8621 16.7768 31.2505 16.3258 30.7994C15.8747 30.3483 15.2631 30.0946 14.6252 30.0938C14.534 30.0938 14.4466 30.0575 14.3821 29.9931C14.3176 29.9286 14.2814 29.8412 14.2814 29.75C14.2814 29.6588 14.3176 29.5714 14.3821 29.5069C14.4466 29.4425 14.534 29.4062 14.6252 29.4062C15.4454 29.4072 16.2318 29.7334 16.8118 30.3134C17.3918 30.8934 17.718 31.6798 17.7189 32.5C17.7189 32.5912 17.6827 32.6786 17.6182 32.7431C17.5538 32.8075 17.4663 32.8438 17.3752 32.8438ZM17.5477 29.311C17.4956 29.3414 17.4362 29.3574 17.3759 29.3573C17.3002 29.3572 17.2267 29.3323 17.1667 29.2862C17.1068 29.2401 17.0636 29.1756 17.0441 29.1025C17.0245 29.0295 17.0296 28.952 17.0585 28.8821C17.0874 28.8123 17.1385 28.7539 17.204 28.716C17.5696 28.5046 17.8732 28.2007 18.0843 27.8349C18.2953 27.469 18.4065 27.0541 18.4065 26.6317C18.4065 26.2093 18.2953 25.7944 18.0843 25.4286C17.8732 25.0627 17.5696 24.7588 17.204 24.5474C17.1287 24.5 17.0748 24.4254 17.0534 24.339C17.0321 24.2527 17.045 24.1615 17.0895 24.0845C17.134 24.0075 17.2066 23.9508 17.292 23.9262C17.3775 23.9016 17.4691 23.911 17.5477 23.9526C18.018 24.2241 18.4085 24.6147 18.68 25.085C18.9515 25.5553 19.0945 26.0887 19.0945 26.6318C19.0945 27.1748 18.9515 27.7083 18.68 28.1786C18.4085 28.6489 18.018 29.0394 17.5477 29.311ZM18.7502 16.3438C18.1122 16.3446 17.5007 16.5983 17.0496 17.0494C16.5985 17.5005 16.3447 18.1121 16.3439 18.75C16.3439 18.8412 16.3077 18.9286 16.2432 18.9931C16.1788 19.0575 16.0913 19.0938 16.0002 19.0938C15.909 19.0938 15.8216 19.0575 15.7571 18.9931C15.6926 18.9286 15.6564 18.8412 15.6564 18.75C15.6566 18.2443 15.7808 17.7464 16.0181 17.2998C16.2555 16.8533 16.5987 16.4718 17.0177 16.1887C17.0232 16.1246 17.0314 16.0604 17.0314 16C17.0306 15.3621 16.7768 14.7505 16.3258 14.2994C15.8747 13.8483 15.2631 13.5946 14.6252 13.5938C14.534 13.5938 14.4466 13.5575 14.3821 13.4931C14.3176 13.4286 14.2814 13.3412 14.2814 13.25C14.2814 13.1588 14.3176 13.0714 14.3821 13.0069C14.4466 12.9425 14.534 12.9062 14.6252 12.9062C15.4182 12.9083 16.18 13.2151 16.7531 13.7632C17.3261 14.3114 17.6665 15.0588 17.7038 15.851C18.0385 15.7254 18.3927 15.6595 18.7502 15.6562C18.8413 15.6563 18.9288 15.6925 18.9932 15.7569C19.0577 15.8214 19.0939 15.9088 19.0939 16C19.0939 16.0912 19.0577 16.1786 18.9932 16.2431C18.9288 16.3075 18.8413 16.3438 18.7502 16.3438ZM18.7502 12.2188C18.2075 12.2175 17.6746 12.0742 17.2045 11.8031C16.7344 11.5319 16.3435 11.1424 16.0707 10.6732C16.0249 10.5944 16.0124 10.5005 16.0358 10.4124C16.0592 10.3243 16.1167 10.249 16.1956 10.2033C16.2744 10.1575 16.3683 10.145 16.4564 10.1684C16.5445 10.1918 16.6198 10.2492 16.6655 10.3281C16.8776 10.6933 17.1817 10.9965 17.5474 11.2076C17.9132 11.4187 18.3279 11.5303 18.7502 11.5312C18.8413 11.5312 18.9288 11.5675 18.9932 11.6319C19.0577 11.6964 19.0939 11.7838 19.0939 11.875C19.0939 11.9662 19.0577 12.0536 18.9932 12.1181C18.9288 12.1825 18.8413 12.2188 18.7502 12.2188Z" fill="#FCF101"></path><path id="Vector_7" d="M30.4375 25.9688C30.6273 25.9688 30.7813 25.8148 30.7813 25.625C30.7813 25.4352 30.6273 25.2812 30.4375 25.2812C30.2477 25.2812 30.0938 25.4352 30.0938 25.625C30.0938 25.8148 30.2477 25.9688 30.4375 25.9688Z" fill="#FCF101"></path><path id="Vector_8" d="M35.25 22.875C35.2482 22.138 35.0481 21.4151 34.6706 20.7821C34.2932 20.149 33.7525 19.6292 33.105 19.2772C33.4796 18.8892 33.7317 18.3995 33.8298 17.8692C33.9278 17.3388 33.8674 16.7914 33.6562 16.2951C33.445 15.7989 33.0923 15.3758 32.6422 15.0788C32.192 14.7818 31.6643 14.6239 31.125 14.625C31.0358 14.625 30.9513 14.643 30.8637 14.6512C31.0971 14.0297 31.1756 13.3608 31.0924 12.7021C31.0093 12.0435 30.7671 11.415 30.3867 10.8709C30.0063 10.3269 29.4992 9.88359 28.9091 9.5794C28.3191 9.2752 27.6638 9.11924 27 9.12498C27.002 8.51357 26.7994 7.91904 26.4247 7.43595C26.0499 6.95286 25.5244 6.60894 24.9317 6.45886C24.3389 6.30878 23.7131 6.36118 23.1535 6.6077C22.594 6.85423 22.133 7.28074 21.8438 7.81942V35.1812C22.133 35.72 22.5941 36.1465 23.1537 36.393C23.7133 36.6395 24.3392 36.6919 24.932 36.5417C25.5247 36.3915 26.0503 36.0475 26.425 35.5643C26.7997 35.0811 27.0021 34.4865 27 33.875C28.094 33.875 29.1432 33.4404 29.9168 32.6668C30.6904 31.8932 31.125 30.844 31.125 29.75C31.5671 29.754 32.0036 29.6504 32.3967 29.4481C32.7898 29.2458 33.1279 28.9509 33.3816 28.5888C33.6354 28.2268 33.7972 27.8084 33.8532 27.3698C33.9092 26.9313 33.8576 26.4857 33.703 26.0714C34.184 25.6887 34.5728 25.2027 34.8406 24.6494C35.1084 24.0961 35.2483 23.4897 35.25 22.875ZM22.875 11.5312H23.9758C24.0569 11.3019 24.2165 11.1086 24.4263 10.9855C24.6361 10.8624 24.8827 10.8174 25.1225 10.8586C25.3622 10.8997 25.5797 11.0243 25.7365 11.2103C25.8933 11.3963 25.9793 11.6317 25.9793 11.875C25.9793 12.1183 25.8933 12.3537 25.7365 12.5397C25.5797 12.7257 25.3622 12.8502 25.1225 12.8914C24.8827 12.9325 24.6361 12.8876 24.4263 12.7645C24.2165 12.6414 24.0569 12.4481 23.9758 12.2187H22.875C22.7838 12.2187 22.6964 12.1825 22.6319 12.1181C22.5675 12.0536 22.5312 11.9662 22.5312 11.875C22.5312 11.7838 22.5675 11.6964 22.6319 11.6319C22.6964 11.5674 22.7838 11.5312 22.875 11.5312ZM22.5312 18.5143C22.53 18.1078 22.6095 17.705 22.7651 17.3294C22.9207 16.9538 23.1493 16.6129 23.4376 16.3263L25.3173 14.4462C25.3563 14.2098 25.4776 13.9946 25.6596 13.8387C25.8416 13.6828 26.0728 13.596 26.3125 13.5937C26.586 13.5937 26.8483 13.7024 27.0417 13.8958C27.2351 14.0892 27.3438 14.3515 27.3438 14.625C27.3438 14.8985 27.2351 15.1608 27.0417 15.3542C26.8483 15.5476 26.586 15.6562 26.3125 15.6562C26.1538 15.6542 25.9978 15.6148 25.8571 15.5414C25.7164 15.468 25.595 15.3625 25.5025 15.2336L23.9237 16.8123C23.6995 17.0353 23.5217 17.3005 23.4007 17.5927C23.2797 17.8848 23.2179 18.1981 23.2188 18.5143V18.9857C23.2179 19.3019 23.2797 19.6151 23.4007 19.9073C23.5217 20.1994 23.6995 20.4647 23.9237 20.6876L25.5025 22.2664C25.595 22.1374 25.7164 22.032 25.8571 21.9586C25.9978 21.8851 26.1538 21.8458 26.3125 21.8437C26.586 21.8437 26.8483 21.9524 27.0417 22.1458C27.2351 22.3392 27.3438 22.6015 27.3438 22.875C27.3438 23.1485 27.2351 23.4108 27.0417 23.6042C26.8483 23.7976 26.586 23.9062 26.3125 23.9062C26.0728 23.9039 25.8416 23.8172 25.6596 23.6613C25.4776 23.5053 25.3563 23.2902 25.3173 23.0537L23.4376 21.174C23.1493 20.8874 22.9207 20.5464 22.7651 20.1708C22.6095 19.7952 22.53 19.3925 22.5312 18.9859V18.5143ZM26.3125 32.1562C26.0728 32.1539 25.8416 32.0672 25.6596 31.9113C25.4776 31.7553 25.3563 31.5402 25.3173 31.3037L23.4376 29.424C23.1493 29.1374 22.9207 28.7964 22.7651 28.4208C22.6095 28.0452 22.53 27.6425 22.5312 27.2359V25.625C22.5312 25.5338 22.5675 25.4464 22.6319 25.3819C22.6964 25.3174 22.7838 25.2812 22.875 25.2812C22.9662 25.2812 23.0536 25.3174 23.1181 25.3819C23.1825 25.4464 23.2188 25.5338 23.2188 25.625V27.2357C23.2179 27.5519 23.2797 27.8651 23.4007 28.1573C23.5217 28.4494 23.6995 28.7147 23.9237 28.9376L25.5025 30.5164C25.595 30.3874 25.7164 30.282 25.8571 30.2086C25.9978 30.1351 26.1538 30.0958 26.3125 30.0937C26.586 30.0937 26.8483 30.2024 27.0417 30.3958C27.2351 30.5892 27.3438 30.8515 27.3438 31.125C27.3438 31.3985 27.2351 31.6608 27.0417 31.8542C26.8483 32.0476 26.586 32.1562 26.3125 32.1562ZM30.4375 26.6562C30.2258 26.6551 30.0197 26.5884 29.8474 26.4653C29.6752 26.3421 29.5454 26.1687 29.4758 25.9687H25.625C25.5338 25.9687 25.4464 25.9325 25.3819 25.8681C25.3175 25.8036 25.2812 25.7162 25.2812 25.625C25.2812 25.5338 25.3175 25.4464 25.3819 25.3819C25.4464 25.3174 25.5338 25.2812 25.625 25.2812H29.4758C29.5396 25.1042 29.6508 24.9481 29.7973 24.83C29.9438 24.7119 30.12 24.6363 30.3065 24.6115C30.493 24.5867 30.6828 24.6136 30.8551 24.6893C31.0273 24.7651 31.1755 24.8867 31.2833 25.0409C31.3912 25.1951 31.4546 25.3759 31.4666 25.5637C31.4786 25.7515 31.4388 25.939 31.3515 26.1057C31.2643 26.2724 31.1328 26.4119 30.9716 26.509C30.8104 26.6061 30.6257 26.657 30.4375 26.6562ZM30.4375 17.7187C30.2841 17.7166 30.1332 17.6796 29.9963 17.6104L29.9931 17.6181L27.6462 19.9652C27.4871 20.1254 27.2977 20.2523 27.0891 20.3388C26.8805 20.4252 26.6568 20.4694 26.431 20.4687H25.625C25.5338 20.4687 25.4464 20.4325 25.3819 20.3681C25.3175 20.3036 25.2812 20.2162 25.2812 20.125C25.2812 20.0338 25.3175 19.9464 25.3819 19.8819C25.4464 19.8174 25.5338 19.7812 25.625 19.7812H26.4306C26.7039 19.7802 26.9657 19.6715 27.1594 19.4787L29.5065 17.1315L29.5142 17.1283C29.4452 16.9915 29.4083 16.8407 29.4062 16.6875C29.4062 16.4835 29.4667 16.2841 29.58 16.1146C29.6934 15.945 29.8544 15.8128 30.0429 15.7347C30.2313 15.6567 30.4386 15.6363 30.6387 15.676C30.8387 15.7158 31.0225 15.8141 31.1667 15.9583C31.3109 16.1025 31.4091 16.2863 31.4489 16.4863C31.4887 16.6863 31.4683 16.8937 31.3903 17.0821C31.3122 17.2706 31.18 17.4316 31.0104 17.5449C30.8408 17.6583 30.6415 17.7187 30.4375 17.7187Z" fill="#FCF101"></path></g></g></svg>