<svg xmlns="http://www.w3.org/2000/svg" width="42" height="43" viewBox="0 0 42 43" fill="none"><g id="Frame 4576"><rect width="42" height="43" rx="5" fill="black"></rect><g id="heartbeat 1" clip-path="url(#clip0_734_123)"><g id="XMLID_580_"><path id="XMLID_582_" d="M27.6821 24.9985L27.6876 24.9886L27.6933 24.9943C28.4889 24.689 29.3575 24.5335 30.2706 24.5653L30.7909 24.0379C32.0887 22.7412 33.5592 21.2714 34.3659 19.3924C35.4482 16.8721 35.1259 13.8707 33.5446 11.7459C31.8929 9.52669 28.9213 8.4356 26.3179 9.09308C24.5024 9.55172 22.3162 11.5715 21.0194 12.9158C19.6875 11.4046 17.9508 9.66623 15.6819 9.09302C13.0788 8.43582 10.107 9.52669 8.45532 11.7459C6.87408 13.8707 6.55169 16.8721 7.63415 19.3926C7.79115 19.758 7.9734 20.1076 8.17431 20.4437H14.895L17.7747 17.5641L21.0683 21.6812L23.1292 19.6203H27.5874V21.2671H23.8114L20.9317 24.1468L17.638 20.0297L15.5771 22.0906H9.36893C9.92539 22.7481 9.49244 22.316 20.9965 33.9678L23.4783 31.4519C23.3367 28.5477 25.1058 25.9924 27.6821 24.9985Z" fill="#FCF101"></path><path id="XMLID_591_" d="M30.0384 26.2075C27.3243 26.2075 25.1162 28.4156 25.1162 31.1297C25.1162 33.8438 27.3243 36.0519 30.0384 36.0519C32.7525 36.0519 34.9606 33.8438 34.9606 31.1297C34.9606 28.4156 32.7526 26.2075 30.0384 26.2075ZM32.5087 31.9532H30.8619V33.6H29.215V31.9532H27.5682V30.3063H29.215V28.6595H30.8619V30.3063H32.5087V31.9532Z" fill="#FCF101"></path></g></g></g><defs><clipPath id="clip0_734_123"><rect width="28" height="28" fill="white" transform="translate(7 8)"></rect></clipPath></defs></svg>