<svg xmlns="http://www.w3.org/2000/svg" width="42" height="43" viewBox="0 0 42 43" fill="none"><g id="Frame 4574"><rect width="42" height="43" rx="5" fill="black"></rect><path id="Vector" d="M34 36.3277H11.4109C10.5535 36.3277 9.8171 35.6874 9.698 34.8384C8.45181 25.9497 9.01166 18.0885 10.2977 12.8841C10.5773 11.753 11.5698 10.1094 12.7468 9.31689C14.0264 8.45538 15.5901 8 17.2686 8H20.4641L21.5095 12.128L20.4662 16.3014H15.058C16.0377 19.8855 17.2313 23.4574 16.8928 27.2517C17.8993 27.0838 18.9612 27.1232 19.9249 27.3597C20.9854 26.2024 22.8303 25.4802 24.8218 25.4802C26.1137 25.4802 27.3586 25.7814 28.365 26.3237C29.4459 24.7661 31.226 23.8113 33.1655 23.8113H33.9999V36.3277H34Z" fill="#FCF101"></path></g></svg>