<svg xmlns="http://www.w3.org/2000/svg" width="42" height="43" viewBox="0 0 42 43" fill="none"><g id="Frame 4577"><rect width="42" height="43" rx="5" fill="black"></rect><g id="shoes 1"><g id="Group"><g id="Group_2"><path id="Vector" d="M23.0817 30.637C22.8793 30.6369 22.6832 30.566 22.5277 30.4363C22.5076 30.4195 22.4881 30.4018 22.4696 30.3833L7.50961 15.4233L6.61131 16.3216C6.21709 16.7158 6 17.24 6 17.7976C6 18.3551 6.21709 18.8793 6.61137 19.2734L15.8372 28.4993H14.0769C13.599 28.4993 13.2115 28.8868 13.2115 29.3647C13.2115 29.8426 13.599 30.23 14.0769 30.23H17.5679L19.2987 31.9608H11.7693C11.2913 31.9608 10.9039 32.3483 10.9039 32.8262C10.9039 33.304 11.2914 33.6915 11.7693 33.6915H21.3887H35.1346C35.6126 33.6915 36 33.304 36 32.8262V30.6369H23.0817V30.637Z" fill="#FCF101"></path></g></g><g id="Group_3"><g id="Group_4"><path id="Vector_2" d="M31.4689 23.4082H29.286C29.2515 23.424 29.2161 23.4384 29.1787 23.4498L24.9456 24.7404C24.8615 24.766 24.7765 24.7783 24.6929 24.7783C24.3221 24.7783 23.9792 24.5381 23.8655 24.1651C23.7261 23.7079 23.9837 23.2243 24.4409 23.0849L27.6571 22.1043L26.961 21.4082L22.8629 22.6577C22.7787 22.6833 22.6937 22.6955 22.6102 22.6955C22.2394 22.6955 21.8964 22.4554 21.7827 22.0823C21.6433 21.6251 21.9009 21.1416 22.3581 21.0021L26.6534 19.6925C26.9345 18.3969 26.5463 17.0514 25.5923 16.0975L24.6677 15.1729C24.0549 14.56 23.2402 14.2225 22.3734 14.2225C21.9691 14.2225 21.5889 14.0651 21.303 13.7792L20.7257 13.2019C20.4397 12.9159 20.2823 12.5359 20.2823 12.1314C20.2823 11.2648 19.9448 10.45 19.332 9.8372L18.0578 8.56308C17.8468 8.35202 17.542 8.2646 17.2513 8.33181L14.0485 9.07097C13.8905 9.10741 13.7459 9.18757 13.6312 9.30224L8.7334 14.2L23.4401 28.9066H35.9999V27.9392C35.9999 25.4408 33.9673 23.4082 31.4689 23.4082Z" fill="#FCF101"></path></g></g></g></g></svg>